# xmcd CD database file
#
# Track frame offsets:
#	150
#	13674
#	27890
#	42295
#	54389
#	68239
#	82619
#	97481
#	111974
#	126363
#	139996
#	155130
#	169417
#	183010
#	195197
#	209810
#	223291
#
# Disc length: 3162 seconds
#
# Revision: 0
# Processed by: cddbd v1.5.2PL0 Copyright (c) Steve Scherf et al.
# Submitted via: CDex 1.70beta2
#
DISCID=fd0c5811
DTITLE=Ella Fitzgerald - Jazz and Blues Masters - Ella Fitzgerald
DYEAR=2002
DGENRE=Blues
TTITLE0=Just a simple melody (S Cahn/S CHaplin)
TTITLE1=Wacky dust (S Adams/O Levend)
TTITLE2=My heart belongs to daddy (C Porter)
TTITLE3=Cryin' mood (A Razaf/C Webb)
TTITLE4=I got the spring fever blues (K Werner/A Bauer)
TTITLE5=Hoilday in Harlem (E Reed/C Webb)
TTITLE6=You showed me the way (E Fitzgerald/ T McRae/ C Webb/A Green)
TTITLE7=Rock it for me (K&S Werner)
TTITLE8=Darktown strutters ball (Brooks)
TTITLE9=It's foxy (W Bishop/C Webb)
TTITLE10=Undecided (Shavers)
TTITLE11=Swinging on the reservation )W Carver)
TTITLE12=You'll have to swing it (Mr Paganini/S Coslow)
TTITLE13=A - tisket. A - tisket (E Fitzgerald/V Alexander)
TTITLE14=McPhearson is rehearsin' to swing (Sunshine)
TTITLE15=F.D.R. (Jones)
TTITLE16=Taint what you do (It's the way that you do it) (Oliver Young)
EXTD=YEAR: 2002
EXTT0=
EXTT1=
EXTT2=
EXTT3=
EXTT4=
EXTT5=
EXTT6=
EXTT7=
EXTT8=
EXTT9=
EXTT10=
EXTT11=
EXTT12=
EXTT13=
EXTT14=
EXTT15=
EXTT16=
PLAYORDER=
